:SAMPLES-PER-SECOND 30
:FULLY-SPECIFIED
:DEGREES
1392
root  -29.7794 38.0389 4.93492 152.186 -78.6039 -156.676
RightUpLeg  -2.07454 -22.7007 -1.19113
RightLeg  48.4734 -3.52665 -4.60399
RightFoot  -13.7494 0.190231 12.202
RightToes  0.000482159 0.542163 -0.142577
Spine  25.2001 -0.45499 4.46699
Spine1  7.77529 -0.275763 2.44514
HEad  -0.290303 3.92069 -4.07814
LeftShoulder1  10.1731 -15.8234 -45.899
LeftArm  -8.91001 7.63088 -19.4379
LeftForeArm  21.2996 -67.6966 -26.5885
LeftHand  -0.25398 0.0180481 5.50724
RightShoulder  5.12425 10.0875 31.7571
RightArm  4.06749 -8.20105 21.2094
RightForeArm  -24.2135 69.3405 35.5759
RightHand  0.0930744 -6.8286 -10.4906
LeftUpLeg  -23.5999 13.3314 -4.91298
LeftLeg  8.13649 10.1263 -3.90257
LeftFoot  13.5132 -3.288 14.6036
LeftToes  1.06246e-005 4.65854e-005 -8.18503e-006
1393
root  -30.646 37.8253 4.62724 159.5 -80.2169 -163.997
RightUpLeg  -9.58541 -22.4207 -3.83927
RightLeg  61.084 -2.00285 -4.44835
RightFoot  -1.0888 -0.792745 9.29164
RightToes  0.000482159 0.542163 -0.142577
Spine  28.9439 -0.411325 3.005
Spine1  7.47519 -0.283715 1.75912
HEad  -2.43805 3.00056 -4.30385
LeftShoulder1  10.4905 -16.4012 -45.9594
LeftArm  -9.33852 4.11452 -19.2975
LeftForeArm  18.738 -65.4147 -23.6492
LeftHand  -0.25398 0.0180481 5.50724
RightShoulder  5.2522 10.4449 31.7086
RightArm  2.35339 -5.72623 22.0982
RightForeArm  -26.3954 67.1465 31.35
RightHand  0.0184879 -6.03195 -9.41095
LeftUpLeg  -27.4655 21.8401 -12.1794
LeftLeg  14.9574 -0.634718 -0.671861
LeftFoot  11.8617 -3.63942 17.2206
LeftToes  1.06246e-005 4.65854e-005 -8.18503e-006
1394
root  -31.2757 37.705 4.37972 169.759 -80.8786 -173.83
RightUpLeg  -17.8823 -20.9003 -5.48433
RightLeg  69.7281 -0.9276 -3.64492
RightFoot  8.10229 -0.684743 4.13211
RightToes  0.000482159 0.542163 -0.142577
Spine  32.7656 -0.272632 2.27261
Spine1  8.15099 0.299418 -0.0357109
HEad  -5.03929 1.82576 -5.15468
LeftShoulder1  10.721 -17.1541 -45.2261
LeftArm  -10.0042 -0.597395 -20.3023
LeftForeArm  16.2167 -62.4583 -20.5911
LeftHand  -0.25398 0.0180481 5.50724
RightShoulder  5.36095 10.9428 31.1584
RightArm  0.0503333 -2.17566 22.8753
RightForeArm  -28.4474 64.3077 27.1295
RightHand  -0.0532525 -5.0541 -8.00003
LeftUpLeg  -29.2715 23.3738 -14.7785
LeftLeg  18.7039 -1.94693 -0.27888
LeftFoot  9.01484 -3.14741 17.0863
LeftToes  1.06246e-005 4.65854e-005 -8.18503e-006
1395
root  -31.832 37.8213 4.15978 174.066 -81.0337 -177.118
RightUpLeg  -25.0811 -19.2407 -5.50482
RightLeg  72.7084 -0.538364 -2.97338
RightFoot  9.26133 -0.373664 2.39453
RightToes  0.000482159 0.542163 -0.142577
Spine  36.1408 -0.477556 2.93212
Spine1  9.0856 0.87977 -1.50221
HEad  -7.80753 0.753932 -6.2011
LeftShoulder1  10.8205 -17.8213 -44.1636
LeftArm  -10.9425 -6.09386 -21.8254
LeftForeArm  14.0321 -58.8534 -17.6473
LeftHand  -0.25398 0.0180481 5.50724
RightShoulder  5.4409 11.4579 30.4022
RightArm  -1.97806 2.92379 22.9494
RightForeArm  -30.6391 60.7551 23.1414
RightHand  -0.0822785 -4.3931 -6.32475
LeftUpLeg  -29.8712 24.4918 -15.5383
LeftLeg  19.4515 -3.00406 -0.844345
LeftFoot  8.21943 -3.02917 17.1425
LeftToes  1.06246e-005 4.65854e-005 -8.18503e-006
1396
root  -32.357 38.0908 3.92311 173.424 -81.6118 -174.817
RightUpLeg  -30.7361 -18.2512 -4.67178
RightLeg  70.214 -0.441239 -2.26134
RightFoot  6.37939 -0.561142 3.89982
RightToes  0.000482159 0.542163 -0.142577
Spine  39.0844 -1.03721 4.10288
Spine1  9.6896 0.9514 -2.08892
HEad  -10.3916 0.168734 -6.58848
LeftShoulder1  10.8169 -18.34 -43.0342
LeftArm  -12.1696 -11.9402 -23.2335
LeftForeArm  12.0716 -54.6093 -14.939
LeftHand  -0.25398 0.0180481 5.50724
RightShoulder  5.55834 11.9501 29.9941
RightArm  -3.51138 9.37743 21.8973
RightForeArm  -32.5497 56.6631 19.6506
RightHand  -0.0883486 -3.76529 -4.60476
LeftUpLeg  -30.5334 24.6484 -15.6194
LeftLeg  18.9404 -4.29754 -1.31281
LeftFoot  8.65003 -3.11994 17.2621
LeftToes  1.06246e-005 4.65854e-005 -8.18503e-006
1397
root  -32.8267 38.3346 3.62414 172.41 -82.5913 -171.71
RightUpLeg  -34.9288 -17.5558 -3.68089
RightLeg  63.2628 -0.96275 -2.59148
RightFoot  4.31769 -0.673204 5.08223
RightToes  0.000482159 0.542163 -0.142577
Spine  41.767 -1.55096 4.76213
Spine1  9.99016 0.798276 -2.16365
HEad  -12.7702 -0.294282 -6.26853
LeftShoulder1  10.7948 -18.9423 -41.7018
LeftArm  -13.7236 -17.6504 -24.5627
LeftForeArm  10.0263 -49.9456 -12.6181
LeftHand  -0.25398 0.0180481 5.50724
RightShoulder  5.71235 12.4574 29.8114
RightArm  -5.1596 16.0105 20.1498
RightForeArm  -33.704 52.5928 16.9303
RightHand  -0.104021 -2.47552 -3.47836
LeftUpLeg  -31.7139 23.8214 -15.5766
LeftLeg  18.6432 -4.93684 -1.52848
LeftFoot  8.54716 -2.9559 16.4374
LeftToes  1.06246e-005 4.65854e-005 -8.18503e-006
